# xmcd CD database file
#
# Track frame offsets:
#	150
#	15192
#	29917
#	43273
#	57853
#	70688
#	85408
#	98465
#	112406
#	128765
#	145013
#	160329
#	176423
#	191072
#	205533
#	219259
#	234592
#	251258
#	266190
#	282709
#
# Disc length: 3933 seconds
#
# Revision: 0
# Processed by: cddbd v1.5.2PL0 Copyright (c) Steve Scherf et al.
# Submitted via: CDex 1.79
#
DISCID=220f5b14
DTITLE=National Portrait Gallery - Stompin' at the Savoy
DYEAR=1900
DGENRE=Jazz
TTITLE0=Stompin' at the Savoy
TTITLE1=Music, Maestro, Please
TTITLE2=Sat it with Music
TTITLE3=Dancing in the Dark
TTITLE4=Caravan
TTITLE5=Stars Fell on Alabama
TTITLE6=I'm Old Fashioned
TTITLE7=Say It Isn't So
TTITLE8=The Very Thought of You
TTITLE9=Georgia on My Mind
TTITLE10=Deep Purple
TTITLE11=It's Only a Paper Moon
TTITLE12=September In The Rain
TTITLE13=The Music Goes 'Round and 'Round
TTITLE14=Night Ride
TTITLE15=Oh! Mo'nah
TTITLE16=I'm Getting Sentimental Over You
TTITLE17=Begin the Beguine
TTITLE18=I Can't Give You Anything But Love
TTITLE19=Lullaby of Broadway
EXTD=
EXTT0=
EXTT1=
EXTT2=
EXTT3=
EXTT4=
EXTT5=
EXTT6=
EXTT7=
EXTT8=
EXTT9=
EXTT10=
EXTT11=
EXTT12=
EXTT13=
EXTT14=
EXTT15=
EXTT16=
EXTT17=
EXTT18=
EXTT19=
PLAYORDER=
